<?xml version="1.0" encoding="UTF-8"?>
<svg width="1360" height="3147" viewBox="0 0 1360 3147" fill="none" xmlns="http://www.w3.org/2000/svg">
<title>FameFlow component</title>
<defs>
  <filter id="shadow" x="-20%" y="-20%" width="140%" height="160%" color-interpolation-filters="sRGB">
    <feDropShadow dx="0" dy="10" stdDeviation="14" flood-color="#1E1E24" flood-opacity="0.10"/>
  </filter>
  <linearGradient id="logoGrad" x1="0" y1="0" x2="48" y2="48" gradientUnits="userSpaceOnUse">
    <stop stop-color="#DBD4FA"/>
    <stop offset="1" stop-color="#8F7CF6"/>
  </linearGradient>
  <linearGradient id="greenGrad" x1="0" y1="0" x2="120" y2="96" gradientUnits="userSpaceOnUse">
    <stop stop-color="#C6FCE4"/>
    <stop offset="1" stop-color="#67D7AA"/>
  </linearGradient>
  <linearGradient id="purpleGrad" x1="0" y1="0" x2="140" y2="96" gradientUnits="userSpaceOnUse">
    <stop stop-color="#F5F1FF"/>
    <stop offset="1" stop-color="#DBD4FA"/>
  </linearGradient>
  
</defs>
<rect x="0" y="0" width="1360" height="2800" rx="0" fill="#F3F1F8" stroke="none" stroke-width="1" />
<text x="32" y="58" fill="#1E1E24" font-family="Inter, Arial, sans-serif" font-size="30" font-weight="800" letter-spacing="0" text-anchor="start">FameFlow SVG Component Kit</text>
<text x="32" y="88" fill="#6F6F7A" font-family="Inter, Arial, sans-serif" font-size="15" font-weight="500" letter-spacing="0" text-anchor="start">Import this file into Figma, then detach/edit each grouped component.</text>
<g id="01-app-header" transform="translate(32 124)">
<rect x="0" y="0" width="422" height="128" rx="18" fill="#FFFFFF" stroke="#DEDBE8" stroke-width="1" />
<text x="16" y="24" fill="#6F6F7A" font-family="Inter, Arial, sans-serif" font-size="13" font-weight="700" letter-spacing="0" text-anchor="start">01-app-header</text>
<g transform="translate(16 44)">
      <rect x="0" y="0" width="390" height="72" rx="0" fill="#FAFAFC" stroke="none" stroke-width="1" />
      
  <g>
    <rect x="24" y="20" width="32" height="32" rx="9" fill="url(#logoGrad)"/>
    <path d="M33 40V30h14M33 35h11" stroke="#FFFFFF" stroke-width="3" stroke-linecap="round"/>
  </g>
      <text x="64" y="42" fill="#1E1E24" font-family="Inter, Arial, sans-serif" font-size="18" font-weight="700" letter-spacing="0" text-anchor="start">FameFlow</text>
      <rect x="278" y="16" width="40" height="40" rx="20" fill="#FFFFFF" stroke="#E8E6F2" stroke-width="1" /><g transform="translate(286 24)"><circle cx="12" cy="12" r="5" stroke="#1E1E24" stroke-width="2"/><path d="M12 1v2M12 21v2M1 12h2M21 12h2M4.2 4.2l1.4 1.4M18.4 18.4l1.4 1.4M19.8 4.2l-1.4 1.4M5.6 18.4l-1.4 1.4" stroke="#1E1E24" stroke-width="2" stroke-linecap="round"/></g>
      <rect x="326" y="16" width="40" height="40" rx="20" fill="#FFFFFF" stroke="#E8E6F2" stroke-width="1" /><g transform="translate(334 24)"><path d="M5 7L19 7" stroke="#1E1E24" stroke-width="2.4" stroke-linecap="round"/><path d="M5 12L19 12" stroke="#1E1E24" stroke-width="2.4" stroke-linecap="round"/><path d="M5 17L19 17" stroke="#1E1E24" stroke-width="2.4" stroke-linecap="round"/></g>
    </g>
</g>
<g id="02-mode-switch" transform="translate(462 124)">
<rect x="0" y="0" width="382" height="120" rx="18" fill="#FFFFFF" stroke="#DEDBE8" stroke-width="1" />
<text x="16" y="24" fill="#6F6F7A" font-family="Inter, Arial, sans-serif" font-size="13" font-weight="700" letter-spacing="0" text-anchor="start">02-mode-switch</text>
<g transform="translate(16 44)">
      <rect x="0" y="0" width="342" height="64" rx="32" fill="#FFFFFF" stroke="rgba(219,212,250,0.78)" stroke-width="1" filter="url(#shadow)"/>
      <rect x="4" y="4" width="165" height="56" rx="28" fill="#DBD4FA" stroke="rgba(45,35,95,0.18)" stroke-width="2" />
      <circle cx="34" cy="22" r="2" fill="#2D235F" fill-opacity="0.16"/>
      <circle cx="134" cy="42" r="2" fill="#2D235F" fill-opacity="0.12"/>
      <g transform="translate(22 20)"><path d="M12 3 14.4 9.1 21 9.4l-5.1 4.1 1.7 6.5-5.6-3.6L6.4 20l1.7-6.5L3 9.4l6.6-.3L12 3Z" stroke="#2D235F" stroke-width="1.8" stroke-linejoin="round"/></g>
      <text x="54" y="41" fill="#2D235F" font-family="Inter, Arial, sans-serif" font-size="24" font-weight="600" letter-spacing="0" text-anchor="start">Celebrity</text>
      <g transform="translate(194 20)"><circle cx="12" cy="8" r="4" stroke="#92929A" stroke-width="1.8"/><path d="M5 21c1.4-4 4-6 7-6s5.6 2 7 6" stroke="#92929A" stroke-width="1.8" stroke-linecap="round"/></g>
      <text x="226" y="41" fill="#92929A" font-family="Inter, Arial, sans-serif" font-size="24" font-weight="600" letter-spacing="0" text-anchor="start">Character</text>
    </g>
</g>
<g id="03-subject-row-empty" transform="translate(892 124)">
<rect x="0" y="0" width="382" height="142" rx="18" fill="#FFFFFF" stroke="#DEDBE8" stroke-width="1" />
<text x="16" y="24" fill="#6F6F7A" font-family="Inter, Arial, sans-serif" font-size="13" font-weight="700" letter-spacing="0" text-anchor="start">03-subject-row-empty</text>
<g transform="translate(16 44)">
      <rect x="0" y="0" width="342" height="86" rx="8" fill="#FFFFFF" stroke="#E8E6F2" stroke-width="1" filter="url(#shadow)"/>
      <g transform="translate(16 23)">
        <circle cx="16" cy="20" r="16" fill="url(#purpleGrad)" stroke="#FAFAFC" stroke-width="2"/>
        <circle cx="32" cy="20" r="16" fill="#F9C7B8" stroke="#FAFAFC" stroke-width="2"/>
        <circle cx="48" cy="20" r="16" fill="url(#greenGrad)" stroke="#FAFAFC" stroke-width="2"/>
        <circle cx="48" cy="17" r="8" fill="#FFFFFF" fill-opacity="0.78"/>
        <path d="M38 33c4-10 16-10 20 0" fill="#FFFFFF" fill-opacity="0.58"/>
      </g>
      <rect x="96" y="10" width="104" height="32" rx="16" fill="#DBD4FA" stroke="rgba(45,35,95,0.18)" stroke-width="1" />
      <circle cx="114" cy="19" r="2" fill="#2D235F" fill-opacity="0.16"/>
      <g transform="translate(104 18)"><path d="M12 3 14.4 9.1 21 9.4l-5.1 4.1 1.7 6.5-5.6-3.6L6.4 20l1.7-6.5L3 9.4l6.6-.3L12 3Z" stroke="#2D235F" stroke-width="1.8" stroke-linejoin="round"/></g>
      <text x="128" y="31" fill="#2D235F" font-family="Inter, Arial, sans-serif" font-size="14" font-weight="400" letter-spacing="0" text-anchor="start">Star mode</text>
      <rect x="96" y="50" width="136" height="28" rx="14" fill="transparent" stroke="rgba(219,212,250,0.78)" stroke-width="1" />
      <text x="164" y="69" fill="#2D235F" font-family="Inter, Arial, sans-serif" font-size="14" font-weight="400" letter-spacing="0" text-anchor="middle">Choose celebrity</text>
      <g transform="translate(306 31)"><path d="m8 5 6 7-6 7" stroke="#1E1E24" stroke-width="2" stroke-linecap="round" stroke-linejoin="round"/></g>
    </g>
</g>
<g id="04-media-tabbar" transform="translate(32 326)">
<rect x="0" y="0" width="382" height="114" rx="18" fill="#FFFFFF" stroke="#DEDBE8" stroke-width="1" />
<text x="16" y="24" fill="#6F6F7A" font-family="Inter, Arial, sans-serif" font-size="13" font-weight="700" letter-spacing="0" text-anchor="start">04-media-tabbar</text>
<g transform="translate(16 44)">
      <rect x="0" y="0" width="342" height="58" rx="29" fill="#FFFFFF" stroke="#E8E6F2" stroke-width="1" filter="url(#shadow)"/>
      <rect x="5" y="5" width="108" height="48" rx="24" fill="#F6F4FE" stroke="rgba(219,212,250,0.58)" stroke-width="1" />
      <rect x="21" y="5" width="76" height="4" rx="2" fill="#DBD4FA" stroke="none" stroke-width="1" />
      <g transform="translate(27 21)"><rect x="4" y="5" width="16" height="14" rx="2" stroke="#2D235F" stroke-width="1.8"/><path d="m7 16 4-4 3 3 2-2 1 3" stroke="#2D235F" stroke-width="1.8" stroke-linecap="round" stroke-linejoin="round"/></g><text x="51" y="36" fill="#2D235F" font-family="Inter, Arial, sans-serif" font-size="14" font-weight="400" letter-spacing="0" text-anchor="start">Image</text>
      <g transform="translate(140 21)"><rect x="4" y="7" width="12" height="10" rx="2" stroke="#6F6F7A" stroke-width="1.8"/><circle cx="10" cy="12" r="2" stroke="#6F6F7A" stroke-width="1.8"/><path d="m16 10 4-2v8l-4-2" stroke="#6F6F7A" stroke-width="1.8" stroke-linecap="round" stroke-linejoin="round"/></g><text x="164" y="36" fill="#6F6F7A" font-family="Inter, Arial, sans-serif" font-size="14" font-weight="400" letter-spacing="0" text-anchor="start">Video</text>
      <g transform="translate(254 21)"><path d="M9 18V5l11-2v13" stroke="#6F6F7A" stroke-width="1.8" stroke-linecap="round" stroke-linejoin="round"/><circle cx="6" cy="18" r="3" stroke="#6F6F7A" stroke-width="1.8"/><circle cx="17" cy="16" r="3" stroke="#6F6F7A" stroke-width="1.8"/></g><text x="278" y="36" fill="#6F6F7A" font-family="Inter, Arial, sans-serif" font-size="14" font-weight="400" letter-spacing="0" text-anchor="start">Audio</text>
    </g>
</g>
<g id="05-prompt-composer" transform="translate(462 326)">
<rect x="0" y="0" width="382" height="419" rx="18" fill="#FFFFFF" stroke="#DEDBE8" stroke-width="1" />
<text x="16" y="24" fill="#6F6F7A" font-family="Inter, Arial, sans-serif" font-size="13" font-weight="700" letter-spacing="0" text-anchor="start">05-prompt-composer</text>
<g transform="translate(16 44)">
      <rect x="0" y="0" width="342" height="363" rx="24" fill="#FFFFFF" stroke="#E8E6F2" stroke-width="1" filter="url(#shadow)"/>
      <g transform="translate(16 16)">
        <g>
          <path d="M21.4 11.6 12.3 20.7a5 5 0 0 1-7.1-7.1l9.2-9.2a3.2 3.2 0 1 1 4.5 4.5l-9.3 9.3a1.5 1.5 0 0 1-2.1-2.1l8.6-8.6" stroke="#6F6F7A" stroke-width="1.8" stroke-linecap="round" stroke-linejoin="round"/>
        </g>
        <text x="40" y="31" fill="#6F6F7A" font-family="Inter, Arial, sans-serif" font-size="17" font-weight="500" letter-spacing="0" text-anchor="start">Enter a text prompt or</text>
        <text x="40" y="57" fill="#6F6F7A" font-family="Inter, Arial, sans-serif" font-size="17" font-weight="500" letter-spacing="0" text-anchor="start">reference image</text>
        <g transform="translate(276 0)">
          <path d="M16 4a3 3 0 0 0-3 3v6a3 3 0 0 0 6 0V7a3 3 0 0 0-3-3Z" stroke="#6F6F7A" stroke-width="1.8"/>
          <path d="M23 12a7 7 0 0 1-14 0M16 19v3" stroke="#6F6F7A" stroke-width="1.8" stroke-linecap="round"/>
        </g>
      </g>
      <rect x="16" y="234" width="174" height="48" rx="16" fill="#F6F4FE" stroke="rgba(219,212,250,0.78)" stroke-width="1" filter="url(#shadow)"/>
      <g transform="translate(28 246)"><path d="M12 3 14 9l6 2-6 2-2 6-2-6-6-2 6-2 2-6Z" stroke="#1E1E24" stroke-width="1.8" stroke-linejoin="round"/></g>
      <text x="66" y="264" fill="#1E1E24" font-family="Inter, Arial, sans-serif" font-size="14" font-weight="600" letter-spacing="0" text-anchor="start">Enhance prompt</text>
      <rect x="16" y="298" width="150" height="48" rx="16" fill="#FFFFFF" stroke="rgba(219,212,250,0.78)" stroke-width="1" filter="url(#shadow)"/>
      <text x="32" y="326" fill="#6F6F7A" font-family="Inter, Arial, sans-serif" font-size="14" font-weight="400" letter-spacing="0" text-anchor="start">Model</text>
      <text x="104" y="326" fill="#1E1E24" font-family="Inter, Arial, sans-serif" font-size="14" font-weight="700" letter-spacing="0" text-anchor="start">Fast</text>
      <g transform="translate(134 310) rotate(90 12 12)"><path d="m8 5 6 7-6 7" stroke="#1E1E24" stroke-width="2" stroke-linecap="round" stroke-linejoin="round"/></g>
      <rect x="174" y="298" width="150" height="48" rx="16" fill="#FFFFFF" stroke="rgba(219,212,250,0.78)" stroke-width="1" filter="url(#shadow)"/>
      <text x="190" y="326" fill="#6F6F7A" font-family="Inter, Arial, sans-serif" font-size="14" font-weight="400" letter-spacing="0" text-anchor="start">Size</text>
      <text x="260" y="326" fill="#1E1E24" font-family="Inter, Arial, sans-serif" font-size="14" font-weight="700" letter-spacing="0" text-anchor="start">9:16</text>
      <g transform="translate(292 310) rotate(90 12 12)"><path d="m8 5 6 7-6 7" stroke="#1E1E24" stroke-width="2" stroke-linecap="round" stroke-linejoin="round"/></g>
    </g>
</g>
<g id="06-select-controls" transform="translate(892 326)">
<rect x="0" y="0" width="382" height="120" rx="18" fill="#FFFFFF" stroke="#DEDBE8" stroke-width="1" />
<text x="16" y="24" fill="#6F6F7A" font-family="Inter, Arial, sans-serif" font-size="13" font-weight="700" letter-spacing="0" text-anchor="start">06-select-controls</text>
<g transform="translate(16 44)">
      <rect x="0" y="0" width="162" height="64" rx="18" fill="#FFFFFF" stroke="#E8E6F2" stroke-width="1" />
      <text x="18" y="24" fill="#6F6F7A" font-family="Inter, Arial, sans-serif" font-size="12" font-weight="500" letter-spacing="0" text-anchor="start">Model</text>
      <text x="18" y="48" fill="#1E1E24" font-family="Inter, Arial, sans-serif" font-size="17" font-weight="700" letter-spacing="0" text-anchor="start">Fast</text>
      <g transform="translate(132 20) rotate(90 12 12)"><path d="m8 5 6 7-6 7" stroke="#6F6F7A" stroke-width="2" stroke-linecap="round" stroke-linejoin="round"/></g>
      <rect x="180" y="0" width="162" height="64" rx="18" fill="#FFFFFF" stroke="#E8E6F2" stroke-width="1" />
      <text x="198" y="24" fill="#6F6F7A" font-family="Inter, Arial, sans-serif" font-size="12" font-weight="500" letter-spacing="0" text-anchor="start">Size</text>
      <text x="198" y="48" fill="#1E1E24" font-family="Inter, Arial, sans-serif" font-size="17" font-weight="700" letter-spacing="0" text-anchor="start">9:16</text>
      <g transform="translate(312 20) rotate(90 12 12)"><path d="m8 5 6 7-6 7" stroke="#6F6F7A" stroke-width="2" stroke-linecap="round" stroke-linejoin="round"/></g>
    </g>
</g>
<g id="07-primary-buttons" transform="translate(32 805)">
<rect x="0" y="0" width="382" height="192" rx="18" fill="#FFFFFF" stroke="#DEDBE8" stroke-width="1" />
<text x="16" y="24" fill="#6F6F7A" font-family="Inter, Arial, sans-serif" font-size="13" font-weight="700" letter-spacing="0" text-anchor="start">07-primary-buttons</text>
<g transform="translate(16 44)">
      <rect x="0" y="0" width="342" height="48" rx="16" fill="#8F7CF6" stroke="none" stroke-width="1" />
      <text x="171" y="31" fill="#FFFFFF" font-family="Inter, Arial, sans-serif" font-size="16" font-weight="700" letter-spacing="0" text-anchor="middle">Generate</text>
      <rect x="0" y="64" width="164" height="48" rx="16" fill="#FFFFFF" stroke="#E8E6F2" stroke-width="1" />
      <text x="82" y="95" fill="#1E1E24" font-family="Inter, Arial, sans-serif" font-size="15" font-weight="700" letter-spacing="0" text-anchor="middle">Cancel</text>
      <rect x="178" y="64" width="164" height="48" rx="16" fill="#C6FCE4" stroke="none" stroke-width="1" />
      <text x="260" y="95" fill="#0B5B46" font-family="Inter, Arial, sans-serif" font-size="15" font-weight="700" letter-spacing="0" text-anchor="middle">Continue</text>
    </g>
</g>
<g id="08-copilot-card" transform="translate(462 805)">
<rect x="0" y="0" width="382" height="188" rx="18" fill="#FFFFFF" stroke="#DEDBE8" stroke-width="1" />
<text x="16" y="24" fill="#6F6F7A" font-family="Inter, Arial, sans-serif" font-size="13" font-weight="700" letter-spacing="0" text-anchor="start">08-copilot-card</text>
<g transform="translate(16 44)">
      <rect x="0" y="0" width="172" height="132" rx="20" fill="#FFFFFF" stroke="#E8E6F2" stroke-width="1" />
      <rect x="16" y="16" width="42" height="42" rx="14" fill="#DBD4FA" stroke="none" stroke-width="1" />
      <g transform="translate(25 25)"><path d="M12 3 14.4 9.1 21 9.4l-5.1 4.1 1.7 6.5-5.6-3.6L6.4 20l1.7-6.5L3 9.4l6.6-.3L12 3Z" stroke="#2D235F" stroke-width="1.8" stroke-linejoin="round"/></g>
      <text x="16" y="84" fill="#1E1E24" font-family="Inter, Arial, sans-serif" font-size="16" font-weight="700" letter-spacing="0" text-anchor="start">Choose a mode</text>
      <text x="16" y="108" fill="#6F6F7A" font-family="Inter, Arial, sans-serif" font-size="13" font-weight="500" letter-spacing="0" text-anchor="start">Pick star or creator</text>
    </g>
</g>
<g id="09-quick-chips" transform="translate(892 805)">
<rect x="0" y="0" width="382" height="248" rx="18" fill="#FFFFFF" stroke="#DEDBE8" stroke-width="1" />
<text x="16" y="24" fill="#6F6F7A" font-family="Inter, Arial, sans-serif" font-size="13" font-weight="700" letter-spacing="0" text-anchor="start">09-quick-chips</text>
<g transform="translate(16 44)">
      <rect x="0" y="0" width="342" height="192" rx="8" fill="#FFFFFF" stroke="#E8E6F2" stroke-width="1" filter="url(#shadow)"/>
      <text x="16" y="40" fill="#1E1E24" font-family="Inter, Arial, sans-serif" font-size="24" font-weight="600" letter-spacing="0" text-anchor="start">A few quick questions</text>
      <text x="16" y="91" fill="#1E1E24" font-family="Inter, Arial, sans-serif" font-size="14" font-weight="400" letter-spacing="0" text-anchor="start">Format</text>
      <rect x="88" y="62" width="236" height="48" rx="24" fill="#FFFFFF" stroke="none" stroke-width="1" filter="url(#shadow)"/>
      <rect x="92" y="66" width="73.33" height="40" rx="20" fill="#DBD4FA" stroke="none" stroke-width="1" />
      <circle cx="110" cy="74" r="2" fill="#2D235F" fill-opacity="0.16"/>
      <circle cx="150" cy="94" r="2" fill="#2D235F" fill-opacity="0.12"/>
      <text x="128.5" y="91" fill="#2D235F" font-family="Inter, Arial, sans-serif" font-size="14" font-weight="400" letter-spacing="0" text-anchor="middle">Image</text>
      <text x="206" y="91" fill="#1E1E24" font-family="Inter, Arial, sans-serif" font-size="14" font-weight="400" letter-spacing="0" text-anchor="middle">Video</text>
      <text x="282" y="91" fill="#1E1E24" font-family="Inter, Arial, sans-serif" font-size="14" font-weight="400" letter-spacing="0" text-anchor="middle">Audio</text>
      <text x="16" y="155" fill="#1E1E24" font-family="Inter, Arial, sans-serif" font-size="14" font-weight="400" letter-spacing="0" text-anchor="start">Size</text>
      <rect x="88" y="126" width="236" height="48" rx="24" fill="#FFFFFF" stroke="none" stroke-width="1" filter="url(#shadow)"/>
      <rect x="92" y="130" width="73.33" height="40" rx="20" fill="#DBD4FA" stroke="none" stroke-width="1" />
      <circle cx="110" cy="138" r="2" fill="#2D235F" fill-opacity="0.16"/>
      <circle cx="150" cy="158" r="2" fill="#2D235F" fill-opacity="0.12"/>
      <text x="128.5" y="155" fill="#2D235F" font-family="Inter, Arial, sans-serif" font-size="14" font-weight="400" letter-spacing="0" text-anchor="middle">9:16</text>
      <text x="206" y="155" fill="#1E1E24" font-family="Inter, Arial, sans-serif" font-size="14" font-weight="400" letter-spacing="0" text-anchor="middle">1:1</text>
      <text x="282" y="155" fill="#1E1E24" font-family="Inter, Arial, sans-serif" font-size="14" font-weight="400" letter-spacing="0" text-anchor="middle">16:9</text>
    </g>
</g>
<g id="10-gallery-filters" transform="translate(32 1113)">
<rect x="0" y="0" width="382" height="176" rx="18" fill="#FFFFFF" stroke="#DEDBE8" stroke-width="1" />
<text x="16" y="24" fill="#6F6F7A" font-family="Inter, Arial, sans-serif" font-size="13" font-weight="700" letter-spacing="0" text-anchor="start">10-gallery-filters</text>
<g transform="translate(16 44)">
      <rect x="0" y="0" width="342" height="48" rx="24" fill="#FFFFFF" stroke="#E8E6F2" stroke-width="1" filter="url(#shadow)"/>
      <rect x="4" y="4" width="80.5" height="40" rx="20" fill="#DBD4FA" stroke="none" stroke-width="1" />
      <text x="44.25" y="29" fill="#2D235F" font-family="Inter, Arial, sans-serif" font-size="14" font-weight="400" letter-spacing="0" text-anchor="middle">All</text>
      <text x="128.75" y="29" fill="#1E1E24" font-family="Inter, Arial, sans-serif" font-size="14" font-weight="400" letter-spacing="0" text-anchor="middle">Celebrity</text>
      <text x="213.25" y="29" fill="#1E1E24" font-family="Inter, Arial, sans-serif" font-size="14" font-weight="400" letter-spacing="0" text-anchor="middle">Character</text>
      <text x="297.75" y="29" fill="#1E1E24" font-family="Inter, Arial, sans-serif" font-size="14" font-weight="400" letter-spacing="0" text-anchor="middle">Favorites</text>
      <rect x="0" y="64" width="167" height="56" rx="28" fill="#F6F4FE" stroke="rgba(219,212,250,0.76)" stroke-width="1" filter="url(#shadow)"/>
      <g transform="translate(16 80)"><circle cx="12" cy="8" r="4" stroke="#1E1E24" stroke-width="1.8"/><path d="M5 21c1.4-4 4-6 7-6s5.6 2 7 6" stroke="#1E1E24" stroke-width="1.8" stroke-linecap="round"/></g><text x="49" y="99" fill="#1E1E24" font-family="Inter, Arial, sans-serif" font-size="14" font-weight="400" letter-spacing="0" text-anchor="start">All subje...</text>
      <g transform="translate(127 80) rotate(90 12 12)"><path d="m8 5 6 7-6 7" stroke="#1E1E24" stroke-width="2" stroke-linecap="round" stroke-linejoin="round"/></g>
      <rect x="175" y="64" width="167" height="56" rx="28" fill="#F6F4FE" stroke="rgba(219,212,250,0.76)" stroke-width="1" filter="url(#shadow)"/>
      <g transform="translate(191 80)"><rect x="4" y="4" width="6" height="6" rx="1" stroke="#1E1E24" stroke-width="1.8"/><rect x="14" y="4" width="6" height="6" rx="1" stroke="#1E1E24" stroke-width="1.8"/><rect x="4" y="14" width="6" height="6" rx="1" stroke="#1E1E24" stroke-width="1.8"/><rect x="14" y="14" width="6" height="6" rx="1" stroke="#1E1E24" stroke-width="1.8"/></g><text x="224" y="99" fill="#1E1E24" font-family="Inter, Arial, sans-serif" font-size="14" font-weight="400" letter-spacing="0" text-anchor="start">All media</text>
      <g transform="translate(302 80) rotate(90 12 12)"><path d="m8 5 6 7-6 7" stroke="#1E1E24" stroke-width="2" stroke-linecap="round" stroke-linejoin="round"/></g>
    </g>
</g>
<g id="11-gallery-card" transform="translate(462 1113)">
<rect x="0" y="0" width="382" height="292" rx="18" fill="#FFFFFF" stroke="#DEDBE8" stroke-width="1" />
<text x="16" y="24" fill="#6F6F7A" font-family="Inter, Arial, sans-serif" font-size="13" font-weight="700" letter-spacing="0" text-anchor="start">11-gallery-card</text>
<g transform="translate(16 44)">
      <rect x="0" y="0" width="162" height="236" rx="20" fill="#FFFFFF" stroke="#E8E6F2" stroke-width="1" />
      <rect x="10" y="10" width="142" height="142" rx="16" fill="url(#purpleGrad)" stroke="none" stroke-width="1" />
      <circle cx="81" cy="78" r="34" fill="#FFFFFF" fill-opacity="0.42"/>
      <path d="M66 94c8-19 22-19 30 0" stroke="#8F7CF6" stroke-width="5" stroke-linecap="round"/>
      <circle cx="81" cy="67" r="19" fill="#8F7CF6" fill-opacity="0.75"/>
      <rect x="18" y="18" width="34" height="28" rx="14" fill="#FFFFFF" stroke="none" stroke-width="1" fill-opacity="0.88"/>
      <g transform="translate(23 20)"><rect x="4" y="5" width="16" height="14" rx="2" stroke="#8F7CF6" stroke-width="1.8"/><path d="m7 16 4-4 3 3 2-2 1 3" stroke="#8F7CF6" stroke-width="1.8" stroke-linecap="round" stroke-linejoin="round"/></g>
      <rect x="110" y="18" width="32" height="28" rx="14" fill="#FFFFFF" stroke="none" stroke-width="1" fill-opacity="0.88"/>
      <path d="M126 24l2.3 5.2 5.7.4-4.4 3.6 1.3 5.6-4.9-3-4.9 3 1.3-5.6-4.4-3.6 5.7-.4L126 24Z" fill="#8F7CF6"/>
      <text x="14" y="178" fill="#8F7CF6" font-family="Inter, Arial, sans-serif" font-size="12" font-weight="700" letter-spacing="0" text-anchor="start">Character</text>
      <text x="14" y="204" fill="#1E1E24" font-family="Inter, Arial, sans-serif" font-size="15" font-weight="700" letter-spacing="0" text-anchor="start">Mina portrait</text>
      <circle cx="136" cy="196" r="3" fill="#6F6F7A"/><circle cx="136" cy="204" r="3" fill="#6F6F7A"/><circle cx="136" cy="212" r="3" fill="#6F6F7A"/>
    </g>
</g>
<g id="12-campaign-card" transform="translate(892 1113)">
<rect x="0" y="0" width="382" height="152" rx="18" fill="#FFFFFF" stroke="#DEDBE8" stroke-width="1" />
<text x="16" y="24" fill="#6F6F7A" font-family="Inter, Arial, sans-serif" font-size="13" font-weight="700" letter-spacing="0" text-anchor="start">12-campaign-card</text>
<g transform="translate(16 44)">
      <rect x="0" y="0" width="342" height="96" rx="20" fill="#FFFFFF" stroke="#E8E6F2" stroke-width="1" />
      <rect x="16" y="16" width="64" height="64" rx="16" fill="url(#greenGrad)" stroke="none" stroke-width="1" />
      <text x="96" y="36" fill="#1E1E24" font-family="Inter, Arial, sans-serif" font-size="17" font-weight="700" letter-spacing="0" text-anchor="start">Summer Launch</text>
      <text x="96" y="60" fill="#6F6F7A" font-family="Inter, Arial, sans-serif" font-size="13" font-weight="500" letter-spacing="0" text-anchor="start">18 assets · Instagram</text>
      <rect x="252" y="32" width="66" height="32" rx="16" fill="#C6FCE4" stroke="none" stroke-width="1" />
      <text x="285" y="53" fill="#0B5B46" font-family="Inter, Arial, sans-serif" font-size="12" font-weight="700" letter-spacing="0" text-anchor="middle">Active</text>
    </g>
</g>
<g id="13-field-card" transform="translate(32 1465)">
<rect x="0" y="0" width="382" height="138" rx="18" fill="#FFFFFF" stroke="#DEDBE8" stroke-width="1" />
<text x="16" y="24" fill="#6F6F7A" font-family="Inter, Arial, sans-serif" font-size="13" font-weight="700" letter-spacing="0" text-anchor="start">13-field-card</text>
<g transform="translate(16 44)">
      <rect x="0" y="0" width="342" height="82" rx="18" fill="#FFFFFF" stroke="#E8E6F2" stroke-width="1" />
      <text x="18" y="27" fill="#6F6F7A" font-family="Inter, Arial, sans-serif" font-size="13" font-weight="600" letter-spacing="0" text-anchor="start">Campaign name</text>
      <text x="18" y="57" fill="#1E1E24" font-family="Inter, Arial, sans-serif" font-size="17" font-weight="700" letter-spacing="0" text-anchor="start">Summer Launch</text>
    </g>
</g>
<g id="14-stepper" transform="translate(462 1465)">
<rect x="0" y="0" width="382" height="92" rx="18" fill="#FFFFFF" stroke="#DEDBE8" stroke-width="1" />
<text x="16" y="24" fill="#6F6F7A" font-family="Inter, Arial, sans-serif" font-size="13" font-weight="700" letter-spacing="0" text-anchor="start">14-stepper</text>
<g transform="translate(16 44)">
      <path d="M28 18L154 18" stroke="#E8E6F2" stroke-width="3" stroke-linecap="round"/>
      <circle cx="18" cy="18" r="16" fill="#8F7CF6"/><text x="18" y="23" fill="#fff" font-family="Inter, Arial, sans-serif" font-size="14" font-weight="700" letter-spacing="0" text-anchor="middle">1</text>
      <circle cx="91" cy="18" r="16" fill="#FFFFFF" stroke="#E8E6F2"/><text x="91" y="23" fill="#6F6F7A" font-family="Inter, Arial, sans-serif" font-size="14" font-weight="700" letter-spacing="0" text-anchor="middle">2</text>
      <circle cx="164" cy="18" r="16" fill="#FFFFFF" stroke="#E8E6F2"/><text x="164" y="23" fill="#6F6F7A" font-family="Inter, Arial, sans-serif" font-size="14" font-weight="700" letter-spacing="0" text-anchor="middle">3</text>
    </g>
</g>
<g id="15-influencer-row" transform="translate(892 1465)">
<rect x="0" y="0" width="382" height="140" rx="18" fill="#FFFFFF" stroke="#DEDBE8" stroke-width="1" />
<text x="16" y="24" fill="#6F6F7A" font-family="Inter, Arial, sans-serif" font-size="13" font-weight="700" letter-spacing="0" text-anchor="start">15-influencer-row</text>
<g transform="translate(16 44)">
      <rect x="0" y="0" width="342" height="84" rx="20" fill="#FFFFFF" stroke="#E8E6F2" stroke-width="1" />
      <circle cx="42" cy="42" r="25" fill="url(#purpleGrad)"/>
      <text x="82" y="35" fill="#1E1E24" font-family="Inter, Arial, sans-serif" font-size="16" font-weight="700" letter-spacing="0" text-anchor="start">Nigel Green</text>
      <text x="82" y="58" fill="#6F6F7A" font-family="Inter, Arial, sans-serif" font-size="13" font-weight="500" letter-spacing="0" text-anchor="start">Fashion · 91% match</text>
      <rect x="260" y="26" width="54" height="32" rx="16" fill="#C6FCE4" stroke="none" stroke-width="1" />
      <text x="287" y="47" fill="#0B5B46" font-family="Inter, Arial, sans-serif" font-size="13" font-weight="700" letter-spacing="0" text-anchor="middle">Add</text>
    </g>
</g>
<g id="16-bottom-nav" transform="translate(32 1665)">
<rect x="0" y="0" width="422" height="144" rx="18" fill="#FFFFFF" stroke="#DEDBE8" stroke-width="1" />
<text x="16" y="24" fill="#6F6F7A" font-family="Inter, Arial, sans-serif" font-size="13" font-weight="700" letter-spacing="0" text-anchor="start">16-bottom-nav</text>
<g transform="translate(16 44)">
      <rect x="0" y="0" width="390" height="88" rx="0" fill="rgba(250,250,252,0.96)" stroke="none" stroke-width="1" />
      <rect x="22" y="12" width="82" height="56" rx="18" fill="#DBD4FA" stroke="none" stroke-width="1" />
      <g transform="translate(51 19)"><path d="M12 3 14.4 9.1 21 9.4l-5.1 4.1 1.7 6.5-5.6-3.6L6.4 20l1.7-6.5L3 9.4l6.6-.3L12 3Z" stroke="#2D235F" stroke-width="1.8" stroke-linejoin="round"/></g><text x="63" y="58" fill="#2D235F" font-family="Inter, Arial, sans-serif" font-size="11" font-weight="700" letter-spacing="0" text-anchor="middle">Create</text>
      <g transform="translate(137 19)"><rect x="4" y="5" width="16" height="14" rx="2" stroke="#6F6F7A" stroke-width="1.8"/><path d="m7 16 4-4 3 3 2-2 1 3" stroke="#6F6F7A" stroke-width="1.8" stroke-linecap="round" stroke-linejoin="round"/></g><text x="149" y="58" fill="#6F6F7A" font-family="Inter, Arial, sans-serif" font-size="11" font-weight="600" letter-spacing="0" text-anchor="middle">Gallery</text>
      <g transform="translate(226 19)"><circle cx="12" cy="8" r="4" stroke="#6F6F7A" stroke-width="1.8"/><path d="M5 21c1.4-4 4-6 7-6s5.6 2 7 6" stroke="#6F6F7A" stroke-width="1.8" stroke-linecap="round"/></g><text x="238" y="58" fill="#6F6F7A" font-family="Inter, Arial, sans-serif" font-size="11" font-weight="600" letter-spacing="0" text-anchor="middle">Co-Pilot</text>
      <g transform="translate(316 19)"><path d="M5 7L19 7" stroke="#6F6F7A" stroke-width="2.4" stroke-linecap="round"/><path d="M5 12L19 12" stroke="#6F6F7A" stroke-width="2.4" stroke-linecap="round"/><path d="M5 17L19 17" stroke="#6F6F7A" stroke-width="2.4" stroke-linecap="round"/></g><text x="328" y="58" fill="#6F6F7A" font-family="Inter, Arial, sans-serif" font-size="11" font-weight="600" letter-spacing="0" text-anchor="middle">Menu</text>
    </g>
</g>
<g id="17-bottom-sheet" transform="translate(462 1665)">
<rect x="0" y="0" width="422" height="344" rx="18" fill="#FFFFFF" stroke="#DEDBE8" stroke-width="1" />
<text x="16" y="24" fill="#6F6F7A" font-family="Inter, Arial, sans-serif" font-size="13" font-weight="700" letter-spacing="0" text-anchor="start">17-bottom-sheet</text>
<g transform="translate(16 44)">
      <rect x="0" y="0" width="390" height="288" rx="24" fill="#FFFFFF" stroke="#E8E6F2" stroke-width="1" />
      <rect x="165" y="12" width="60" height="5" rx="3" fill="#E8E6F2" stroke="none" stroke-width="1" />
      <text x="24" y="52" fill="#1E1E24" font-family="Inter, Arial, sans-serif" font-size="22" font-weight="700" letter-spacing="0" text-anchor="start">Choose subject</text>
      <rect x="24" y="76" width="342" height="64" rx="18" fill="#F7F4FF" stroke="#E8E6F2" stroke-width="1" />
      <circle cx="56" cy="108" r="20" fill="#DBD4FA"/><text x="92" y="104" fill="#1E1E24" font-family="Inter, Arial, sans-serif" font-size="16" font-weight="700" letter-spacing="0" text-anchor="start">Ava Stone</text><text x="92" y="124" fill="#6F6F7A" font-family="Inter, Arial, sans-serif" font-size="12" font-weight="500" letter-spacing="0" text-anchor="start">Celebrity</text><g transform="translate(330 96)"><path d="m5 12 4 4 10-10" stroke="#8F7CF6" stroke-width="2.2" stroke-linecap="round" stroke-linejoin="round"/></g>
      <rect x="24" y="152" width="342" height="64" rx="18" fill="#FFFFFF" stroke="#E8E6F2" stroke-width="1" />
      <circle cx="56" cy="184" r="20" fill="#C6FCE4"/><text x="92" y="180" fill="#1E1E24" font-family="Inter, Arial, sans-serif" font-size="16" font-weight="700" letter-spacing="0" text-anchor="start">Mina</text><text x="92" y="200" fill="#6F6F7A" font-family="Inter, Arial, sans-serif" font-size="12" font-weight="500" letter-spacing="0" text-anchor="start">Character</text>
      <rect x="24" y="228" width="342" height="48" rx="16" fill="#8F7CF6" stroke="none" stroke-width="1" />
      <text x="195" y="259" fill="#fff" font-family="Inter, Arial, sans-serif" font-size="15" font-weight="700" letter-spacing="0" text-anchor="middle">Use selected subject</text>
    </g>
</g>
<g id="18-side-menu" transform="translate(892 1665)">
<rect x="0" y="0" width="382" height="676" rx="18" fill="#FFFFFF" stroke="#DEDBE8" stroke-width="1" />
<text x="16" y="24" fill="#6F6F7A" font-family="Inter, Arial, sans-serif" font-size="13" font-weight="700" letter-spacing="0" text-anchor="start">18-side-menu</text>
<g transform="translate(16 44)">
      <rect x="0" y="0" width="318" height="620" rx="0" fill="#FFFFFF" stroke="none" stroke-width="1" />
      
  <g>
    <rect x="24" y="24" width="32" height="32" rx="9" fill="url(#logoGrad)"/>
    <path d="M33 44V34h14M33 39h11" stroke="#FFFFFF" stroke-width="3" stroke-linecap="round"/>
  </g><text x="64" y="46" fill="#1E1E24" font-family="Inter, Arial, sans-serif" font-size="18" font-weight="700" letter-spacing="0" text-anchor="start">FameFlow</text>
      <rect x="24" y="82" width="270" height="72" rx="20" fill="#F7F4FF" stroke="#E8E6F2" stroke-width="1" />
      <text x="44" y="110" fill="#6F6F7A" font-family="Inter, Arial, sans-serif" font-size="12" font-weight="600" letter-spacing="0" text-anchor="start">Current project</text><text x="44" y="136" fill="#1E1E24" font-family="Inter, Arial, sans-serif" font-size="18" font-weight="700" letter-spacing="0" text-anchor="start">TEST</text><text x="186" y="126" fill="#8F7CF6" font-family="Inter, Arial, sans-serif" font-size="13" font-weight="700" letter-spacing="0" text-anchor="start">Switch</text><g transform="translate(260 108)"><path d="m8 5 6 7-6 7" stroke="#6F6F7A" stroke-width="2" stroke-linecap="round" stroke-linejoin="round"/></g>
      <text x="24" y="190" fill="#6F6F7A" font-family="Inter, Arial, sans-serif" font-size="12" font-weight="700" letter-spacing="0" text-anchor="start">Create</text>
      <rect x="24" y="204" width="270" height="52" rx="16" fill="#FFFFFF" stroke="#E8E6F2" stroke-width="1" /><text x="44" y="237" fill="#1E1E24" font-family="Inter, Arial, sans-serif" font-size="15" font-weight="700" letter-spacing="0" text-anchor="start">Co-Pilot</text><g transform="translate(260 218)"><path d="m8 5 6 7-6 7" stroke="#6F6F7A" stroke-width="2" stroke-linecap="round" stroke-linejoin="round"/></g>
      <rect x="24" y="264" width="270" height="52" rx="16" fill="#FFFFFF" stroke="#E8E6F2" stroke-width="1" /><text x="44" y="297" fill="#1E1E24" font-family="Inter, Arial, sans-serif" font-size="15" font-weight="700" letter-spacing="0" text-anchor="start">Generate</text><g transform="translate(260 278)"><path d="m8 5 6 7-6 7" stroke="#6F6F7A" stroke-width="2" stroke-linecap="round" stroke-linejoin="round"/></g>
      <rect x="24" y="324" width="270" height="52" rx="16" fill="#FFFFFF" stroke="#E8E6F2" stroke-width="1" /><text x="44" y="357" fill="#1E1E24" font-family="Inter, Arial, sans-serif" font-size="15" font-weight="700" letter-spacing="0" text-anchor="start">Gallery</text><g transform="translate(260 338)"><path d="m8 5 6 7-6 7" stroke="#6F6F7A" stroke-width="2" stroke-linecap="round" stroke-linejoin="round"/></g>
      <text x="24" y="412" fill="#6F6F7A" font-family="Inter, Arial, sans-serif" font-size="12" font-weight="700" letter-spacing="0" text-anchor="start">Account</text>
      <text x="44" y="446" fill="#1E1E24" font-family="Inter, Arial, sans-serif" font-size="16" font-weight="700" letter-spacing="0" text-anchor="start">Olivia Reed</text>
      <rect x="24" y="466" width="270" height="64" rx="18" fill="#F7F4FF" stroke="#E8E6F2" stroke-width="1" /><text x="44" y="500" fill="#1E1E24" font-family="Inter, Arial, sans-serif" font-size="18" font-weight="700" letter-spacing="0" text-anchor="start">1,240 credits</text><rect x="198" y="482" width="76" height="32" rx="16" fill="#8F7CF6" stroke="none" stroke-width="1" /><text x="236" y="503" fill="#fff" font-family="Inter, Arial, sans-serif" font-size="12" font-weight="700" letter-spacing="0" text-anchor="middle">Add cash</text>
      <rect x="24" y="542" width="270" height="52" rx="16" fill="#FFFFFF" stroke="#E8E6F2" stroke-width="1" /><text x="44" y="575" fill="#1E1E24" font-family="Inter, Arial, sans-serif" font-size="15" font-weight="700" letter-spacing="0" text-anchor="start">Settings</text><g transform="translate(260 556)"><path d="m8 5 6 7-6 7" stroke="#6F6F7A" stroke-width="2" stroke-linecap="round" stroke-linejoin="round"/></g>
    </g>
</g>
<g id="19-toast" transform="translate(32 2401)">
<rect x="0" y="0" width="382" height="112" rx="18" fill="#FFFFFF" stroke="#DEDBE8" stroke-width="1" />
<text x="16" y="24" fill="#6F6F7A" font-family="Inter, Arial, sans-serif" font-size="13" font-weight="700" letter-spacing="0" text-anchor="start">19-toast</text>
<g transform="translate(16 44)">
      <rect x="0" y="0" width="300" height="56" rx="18" fill="#1E1E24" stroke="none" stroke-width="1" />
      <text x="150" y="35" fill="#FFFFFF" font-family="Inter, Arial, sans-serif" font-size="15" font-weight="700" letter-spacing="0" text-anchor="middle">Generation started.</text>
    </g>
</g>
<g id="20-empty-state" transform="translate(462 2401)">
<rect x="0" y="0" width="382" height="316" rx="18" fill="#FFFFFF" stroke="#DEDBE8" stroke-width="1" />
<text x="16" y="24" fill="#6F6F7A" font-family="Inter, Arial, sans-serif" font-size="13" font-weight="700" letter-spacing="0" text-anchor="start">20-empty-state</text>
<g transform="translate(16 44)">
      <rect x="0" y="0" width="342" height="260" rx="24" fill="#FFFFFF" stroke="#E8E6F2" stroke-width="1" />
      <circle cx="171" cy="74" r="42" fill="#F7F4FF"/>
      <g transform="translate(159 62)"><path d="M9 18V5l11-2v13" stroke="#8F7CF6" stroke-width="1.8" stroke-linecap="round" stroke-linejoin="round"/><circle cx="6" cy="18" r="3" stroke="#8F7CF6" stroke-width="1.8"/><circle cx="17" cy="16" r="3" stroke="#8F7CF6" stroke-width="1.8"/></g>
      <text x="171" y="144" fill="#1E1E24" font-family="Inter, Arial, sans-serif" font-size="22" font-weight="700" letter-spacing="0" text-anchor="middle">No audio yet</text>
      <text x="171" y="172" fill="#6F6F7A" font-family="Inter, Arial, sans-serif" font-size="14" font-weight="500" letter-spacing="0" text-anchor="middle">Create your first generated audio.</text>
      <rect x="54" y="196" width="234" height="48" rx="16" fill="#8F7CF6" stroke="none" stroke-width="1" />
      <text x="171" y="227" fill="#fff" font-family="Inter, Arial, sans-serif" font-size="15" font-weight="700" letter-spacing="0" text-anchor="middle">Create audio</text>
    </g>
</g>
<g id="21-dialog" transform="translate(892 2401)">
<rect x="0" y="0" width="382" height="294" rx="18" fill="#FFFFFF" stroke="#DEDBE8" stroke-width="1" />
<text x="16" y="24" fill="#6F6F7A" font-family="Inter, Arial, sans-serif" font-size="13" font-weight="700" letter-spacing="0" text-anchor="start">21-dialog</text>
<g transform="translate(16 44)">
      <rect x="0" y="0" width="342" height="238" rx="24" fill="#FFFFFF" stroke="#E8E6F2" stroke-width="1" filter="url(#shadow)"/>
      <text x="24" y="42" fill="#1E1E24" font-family="Inter, Arial, sans-serif" font-size="22" font-weight="700" letter-spacing="0" text-anchor="start">Add cash</text>
      <text x="24" y="70" fill="#6F6F7A" font-family="Inter, Arial, sans-serif" font-size="14" font-weight="500" letter-spacing="0" text-anchor="start">Choose amount</text>
      <rect x="24" y="94" width="86" height="36" rx="18" fill="#8F7CF6" stroke="#8F7CF6" stroke-width="1" /><text x="67" y="117" fill="#fff" font-family="Inter, Arial, sans-serif" font-size="13" font-weight="600" letter-spacing="0" text-anchor="middle">$25</text>
      <rect x="128" y="94" width="86" height="36" rx="18" fill="#FFFFFF" stroke="#E8E6F2" stroke-width="1" /><text x="171" y="117" fill="#1E1E24" font-family="Inter, Arial, sans-serif" font-size="13" font-weight="600" letter-spacing="0" text-anchor="middle">$50</text>
      <rect x="232" y="94" width="86" height="36" rx="18" fill="#FFFFFF" stroke="#E8E6F2" stroke-width="1" /><text x="275" y="117" fill="#1E1E24" font-family="Inter, Arial, sans-serif" font-size="13" font-weight="600" letter-spacing="0" text-anchor="middle">$100</text>
      <rect x="24" y="166" width="138" height="48" rx="16" fill="#FFFFFF" stroke="#E8E6F2" stroke-width="1" />
      <text x="93" y="197" fill="#1E1E24" font-family="Inter, Arial, sans-serif" font-size="15" font-weight="700" letter-spacing="0" text-anchor="middle">Cancel</text>
      <rect x="180" y="166" width="138" height="48" rx="16" fill="#8F7CF6" stroke="none" stroke-width="1" />
      <text x="249" y="197" fill="#fff" font-family="Inter, Arial, sans-serif" font-size="15" font-weight="700" letter-spacing="0" text-anchor="middle">Continue</text>
    </g>
</g>
<g id="22-offline-card" transform="translate(32 2777)">
<rect x="0" y="0" width="382" height="306" rx="18" fill="#FFFFFF" stroke="#DEDBE8" stroke-width="1" />
<text x="16" y="24" fill="#6F6F7A" font-family="Inter, Arial, sans-serif" font-size="13" font-weight="700" letter-spacing="0" text-anchor="start">22-offline-card</text>
<g transform="translate(16 44)">
      <rect x="0" y="0" width="342" height="250" rx="24" fill="#FFFFFF" stroke="#E8E6F2" stroke-width="1" />
      <rect x="132" y="34" width="78" height="78" rx="22" fill="#F7F4FF" stroke="none" stroke-width="1" />
      <rect x="150" y="50" width="24" height="24" rx="6" fill="#8F7CF6" stroke="none" stroke-width="1" /><rect x="168" y="68" width="24" height="24" rx="6" fill="#C6FCE4" stroke="none" stroke-width="1" />
      <text x="171" y="148" fill="#1E1E24" font-family="Inter, Arial, sans-serif" font-size="21" font-weight="700" letter-spacing="0" text-anchor="middle">No internet connection</text>
      <text x="171" y="176" fill="#6F6F7A" font-family="Inter, Arial, sans-serif" font-size="14" font-weight="500" letter-spacing="0" text-anchor="middle">Check connection and try again.</text>
      <rect x="54" y="198" width="234" height="48" rx="16" fill="#8F7CF6" stroke="none" stroke-width="1" />
      <text x="171" y="229" fill="#fff" font-family="Inter, Arial, sans-serif" font-size="15" font-weight="700" letter-spacing="0" text-anchor="middle">Try again</text>
    </g>
</g>
<g id="23-source-menu" transform="translate(462 2777)">
<rect x="0" y="0" width="382" height="294" rx="18" fill="#FFFFFF" stroke="#DEDBE8" stroke-width="1" />
<text x="16" y="24" fill="#6F6F7A" font-family="Inter, Arial, sans-serif" font-size="13" font-weight="700" letter-spacing="0" text-anchor="start">23-source-menu</text>
<g transform="translate(16 44)">
      <rect x="0" y="0" width="342" height="238" rx="24" fill="#FFFFFF" stroke="#E8E6F2" stroke-width="1" />
      <text x="24" y="44" fill="#1E1E24" font-family="Inter, Arial, sans-serif" font-size="22" font-weight="700" letter-spacing="0" text-anchor="start">Add reference</text>
      <rect x="24" y="70" width="294" height="48" rx="16" fill="#FFFFFF" stroke="#E8E6F2" stroke-width="1" /><g transform="translate(42 82)"><rect x="4" y="5" width="16" height="14" rx="2" stroke="#8F7CF6" stroke-width="1.8"/><path d="m7 16 4-4 3 3 2-2 1 3" stroke="#8F7CF6" stroke-width="1.8" stroke-linecap="round" stroke-linejoin="round"/></g><text x="80" y="101" fill="#1E1E24" font-family="Inter, Arial, sans-serif" font-size="15" font-weight="700" letter-spacing="0" text-anchor="start">Media library</text>
      <rect x="24" y="126" width="294" height="48" rx="16" fill="#FFFFFF" stroke="#E8E6F2" stroke-width="1" /><g transform="translate(42 138)"><rect x="4" y="7" width="12" height="10" rx="2" stroke="#8F7CF6" stroke-width="1.8"/><circle cx="10" cy="12" r="2" stroke="#8F7CF6" stroke-width="1.8"/><path d="m16 10 4-2v8l-4-2" stroke="#8F7CF6" stroke-width="1.8" stroke-linecap="round" stroke-linejoin="round"/></g><text x="80" y="157" fill="#1E1E24" font-family="Inter, Arial, sans-serif" font-size="15" font-weight="700" letter-spacing="0" text-anchor="start">Take photo/video</text>
      <rect x="24" y="182" width="294" height="48" rx="16" fill="#FFFFFF" stroke="#E8E6F2" stroke-width="1" /><g transform="translate(42 194)"><path d="M12 5L12 19" stroke="#8F7CF6" stroke-width="2" stroke-linecap="round"/><path d="M5 12L19 12" stroke="#8F7CF6" stroke-width="2" stroke-linecap="round"/></g><text x="80" y="213" fill="#1E1E24" font-family="Inter, Arial, sans-serif" font-size="15" font-weight="700" letter-spacing="0" text-anchor="start">Choose file</text>
    </g>
</g>
<g id="24-project-option" transform="translate(892 2777)">
<rect x="0" y="0" width="382" height="124" rx="18" fill="#FFFFFF" stroke="#DEDBE8" stroke-width="1" />
<text x="16" y="24" fill="#6F6F7A" font-family="Inter, Arial, sans-serif" font-size="13" font-weight="700" letter-spacing="0" text-anchor="start">24-project-option</text>
<g transform="translate(16 44)">
      <rect x="0" y="0" width="342" height="68" rx="18" fill="#F7F4FF" stroke="#8F7CF6" stroke-width="1.5" />
      <text x="18" y="42" fill="#1E1E24" font-family="Inter, Arial, sans-serif" font-size="17" font-weight="700" letter-spacing="0" text-anchor="start">TEST-A</text>
      <rect x="198" y="18" width="76" height="32" rx="16" fill="#DBD4FA" stroke="none" stroke-width="1" />
      <text x="236" y="39" fill="#2D235F" font-family="Inter, Arial, sans-serif" font-size="12" font-weight="700" letter-spacing="0" text-anchor="middle">Current</text>
      <circle cx="310" cy="34" r="14" fill="#8F7CF6"/><g transform="translate(298 22)"><path d="m5 12 4 4 10-10" stroke="#fff" stroke-width="2.2" stroke-linecap="round" stroke-linejoin="round"/></g>
    </g>
</g>
</svg>
