<?xml version="1.0" encoding="UTF-8"?>
<svg width="390" height="72" viewBox="0 0 390 72" fill="none" xmlns="http://www.w3.org/2000/svg">
<title>FameFlow component</title>
<defs>
  <filter id="shadow" x="-20%" y="-20%" width="140%" height="160%" color-interpolation-filters="sRGB">
    <feDropShadow dx="0" dy="10" stdDeviation="14" flood-color="#1E1E24" flood-opacity="0.10"/>
  </filter>
  <linearGradient id="logoGrad" x1="0" y1="0" x2="48" y2="48" gradientUnits="userSpaceOnUse">
    <stop stop-color="#DBD4FA"/>
    <stop offset="1" stop-color="#8F7CF6"/>
  </linearGradient>
  <linearGradient id="greenGrad" x1="0" y1="0" x2="120" y2="96" gradientUnits="userSpaceOnUse">
    <stop stop-color="#C6FCE4"/>
    <stop offset="1" stop-color="#67D7AA"/>
  </linearGradient>
  <linearGradient id="purpleGrad" x1="0" y1="0" x2="140" y2="96" gradientUnits="userSpaceOnUse">
    <stop stop-color="#F5F1FF"/>
    <stop offset="1" stop-color="#DBD4FA"/>
  </linearGradient>
  
</defs>

      <rect x="0" y="0" width="390" height="72" rx="0" fill="#FAFAFC" stroke="none" stroke-width="1" />
      
  <g>
    <rect x="24" y="20" width="32" height="32" rx="9" fill="url(#logoGrad)"/>
    <path d="M33 40V30h14M33 35h11" stroke="#FFFFFF" stroke-width="3" stroke-linecap="round"/>
  </g>
      <text x="64" y="42" fill="#1E1E24" font-family="Inter, Arial, sans-serif" font-size="18" font-weight="700" letter-spacing="0" text-anchor="start">FameFlow</text>
      <rect x="278" y="16" width="40" height="40" rx="20" fill="#FFFFFF" stroke="#E8E6F2" stroke-width="1" /><g transform="translate(286 24)"><circle cx="12" cy="12" r="5" stroke="#1E1E24" stroke-width="2"/><path d="M12 1v2M12 21v2M1 12h2M21 12h2M4.2 4.2l1.4 1.4M18.4 18.4l1.4 1.4M19.8 4.2l-1.4 1.4M5.6 18.4l-1.4 1.4" stroke="#1E1E24" stroke-width="2" stroke-linecap="round"/></g>
      <rect x="326" y="16" width="40" height="40" rx="20" fill="#FFFFFF" stroke="#E8E6F2" stroke-width="1" /><g transform="translate(334 24)"><path d="M5 7L19 7" stroke="#1E1E24" stroke-width="2.4" stroke-linecap="round"/><path d="M5 12L19 12" stroke="#1E1E24" stroke-width="2.4" stroke-linecap="round"/><path d="M5 17L19 17" stroke="#1E1E24" stroke-width="2.4" stroke-linecap="round"/></g>
    
</svg>
