<?xml version="1.0" encoding="UTF-8"?>
<svg width="342" height="64" viewBox="0 0 342 64" fill="none" xmlns="http://www.w3.org/2000/svg">
<title>FameFlow component</title>
<defs>
  <filter id="shadow" x="-20%" y="-20%" width="140%" height="160%" color-interpolation-filters="sRGB">
    <feDropShadow dx="0" dy="10" stdDeviation="14" flood-color="#1E1E24" flood-opacity="0.10"/>
  </filter>
  <linearGradient id="logoGrad" x1="0" y1="0" x2="48" y2="48" gradientUnits="userSpaceOnUse">
    <stop stop-color="#DBD4FA"/>
    <stop offset="1" stop-color="#8F7CF6"/>
  </linearGradient>
  <linearGradient id="greenGrad" x1="0" y1="0" x2="120" y2="96" gradientUnits="userSpaceOnUse">
    <stop stop-color="#C6FCE4"/>
    <stop offset="1" stop-color="#67D7AA"/>
  </linearGradient>
  <linearGradient id="purpleGrad" x1="0" y1="0" x2="140" y2="96" gradientUnits="userSpaceOnUse">
    <stop stop-color="#F5F1FF"/>
    <stop offset="1" stop-color="#DBD4FA"/>
  </linearGradient>
  
</defs>

      <rect x="0" y="0" width="342" height="64" rx="32" fill="#FFFFFF" stroke="rgba(219,212,250,0.78)" stroke-width="1" filter="url(#shadow)"/>
      <rect x="4" y="4" width="165" height="56" rx="28" fill="#DBD4FA" stroke="rgba(45,35,95,0.18)" stroke-width="2" />
      <circle cx="34" cy="22" r="2" fill="#2D235F" fill-opacity="0.16"/>
      <circle cx="134" cy="42" r="2" fill="#2D235F" fill-opacity="0.12"/>
      <g transform="translate(22 20)"><path d="M12 3 14.4 9.1 21 9.4l-5.1 4.1 1.7 6.5-5.6-3.6L6.4 20l1.7-6.5L3 9.4l6.6-.3L12 3Z" stroke="#2D235F" stroke-width="1.8" stroke-linejoin="round"/></g>
      <text x="54" y="41" fill="#2D235F" font-family="Inter, Arial, sans-serif" font-size="24" font-weight="600" letter-spacing="0" text-anchor="start">Celebrity</text>
      <g transform="translate(194 20)"><circle cx="12" cy="8" r="4" stroke="#92929A" stroke-width="1.8"/><path d="M5 21c1.4-4 4-6 7-6s5.6 2 7 6" stroke="#92929A" stroke-width="1.8" stroke-linecap="round"/></g>
      <text x="226" y="41" fill="#92929A" font-family="Inter, Arial, sans-serif" font-size="24" font-weight="600" letter-spacing="0" text-anchor="start">Character</text>
    
</svg>
