<?xml version="1.0" encoding="UTF-8"?>
<svg width="342" height="86" viewBox="0 0 342 86" fill="none" xmlns="http://www.w3.org/2000/svg">
<title>FameFlow component</title>
<defs>
  <filter id="shadow" x="-20%" y="-20%" width="140%" height="160%" color-interpolation-filters="sRGB">
    <feDropShadow dx="0" dy="10" stdDeviation="14" flood-color="#1E1E24" flood-opacity="0.10"/>
  </filter>
  <linearGradient id="logoGrad" x1="0" y1="0" x2="48" y2="48" gradientUnits="userSpaceOnUse">
    <stop stop-color="#DBD4FA"/>
    <stop offset="1" stop-color="#8F7CF6"/>
  </linearGradient>
  <linearGradient id="greenGrad" x1="0" y1="0" x2="120" y2="96" gradientUnits="userSpaceOnUse">
    <stop stop-color="#C6FCE4"/>
    <stop offset="1" stop-color="#67D7AA"/>
  </linearGradient>
  <linearGradient id="purpleGrad" x1="0" y1="0" x2="140" y2="96" gradientUnits="userSpaceOnUse">
    <stop stop-color="#F5F1FF"/>
    <stop offset="1" stop-color="#DBD4FA"/>
  </linearGradient>
  
</defs>

      <rect x="0" y="0" width="342" height="86" rx="8" fill="#FFFFFF" stroke="#E8E6F2" stroke-width="1" filter="url(#shadow)"/>
      <g transform="translate(16 23)">
        <circle cx="16" cy="20" r="16" fill="url(#purpleGrad)" stroke="#FAFAFC" stroke-width="2"/>
        <circle cx="32" cy="20" r="16" fill="#F9C7B8" stroke="#FAFAFC" stroke-width="2"/>
        <circle cx="48" cy="20" r="16" fill="url(#greenGrad)" stroke="#FAFAFC" stroke-width="2"/>
        <circle cx="48" cy="17" r="8" fill="#FFFFFF" fill-opacity="0.78"/>
        <path d="M38 33c4-10 16-10 20 0" fill="#FFFFFF" fill-opacity="0.58"/>
      </g>
      <rect x="96" y="10" width="104" height="32" rx="16" fill="#DBD4FA" stroke="rgba(45,35,95,0.18)" stroke-width="1" />
      <circle cx="114" cy="19" r="2" fill="#2D235F" fill-opacity="0.16"/>
      <g transform="translate(104 18)"><path d="M12 3 14.4 9.1 21 9.4l-5.1 4.1 1.7 6.5-5.6-3.6L6.4 20l1.7-6.5L3 9.4l6.6-.3L12 3Z" stroke="#2D235F" stroke-width="1.8" stroke-linejoin="round"/></g>
      <text x="128" y="31" fill="#2D235F" font-family="Inter, Arial, sans-serif" font-size="14" font-weight="400" letter-spacing="0" text-anchor="start">Star mode</text>
      <rect x="96" y="50" width="136" height="28" rx="14" fill="transparent" stroke="rgba(219,212,250,0.78)" stroke-width="1" />
      <text x="164" y="69" fill="#2D235F" font-family="Inter, Arial, sans-serif" font-size="14" font-weight="400" letter-spacing="0" text-anchor="middle">Choose celebrity</text>
      <g transform="translate(306 31)"><path d="m8 5 6 7-6 7" stroke="#1E1E24" stroke-width="2" stroke-linecap="round" stroke-linejoin="round"/></g>
    
</svg>
