<?xml version="1.0" encoding="UTF-8"?>
<svg width="342" height="58" viewBox="0 0 342 58" fill="none" xmlns="http://www.w3.org/2000/svg">
<title>FameFlow component</title>
<defs>
  <filter id="shadow" x="-20%" y="-20%" width="140%" height="160%" color-interpolation-filters="sRGB">
    <feDropShadow dx="0" dy="10" stdDeviation="14" flood-color="#1E1E24" flood-opacity="0.10"/>
  </filter>
  <linearGradient id="logoGrad" x1="0" y1="0" x2="48" y2="48" gradientUnits="userSpaceOnUse">
    <stop stop-color="#DBD4FA"/>
    <stop offset="1" stop-color="#8F7CF6"/>
  </linearGradient>
  <linearGradient id="greenGrad" x1="0" y1="0" x2="120" y2="96" gradientUnits="userSpaceOnUse">
    <stop stop-color="#C6FCE4"/>
    <stop offset="1" stop-color="#67D7AA"/>
  </linearGradient>
  <linearGradient id="purpleGrad" x1="0" y1="0" x2="140" y2="96" gradientUnits="userSpaceOnUse">
    <stop stop-color="#F5F1FF"/>
    <stop offset="1" stop-color="#DBD4FA"/>
  </linearGradient>
  
</defs>

      <rect x="0" y="0" width="342" height="58" rx="29" fill="#FFFFFF" stroke="#E8E6F2" stroke-width="1" filter="url(#shadow)"/>
      <rect x="5" y="5" width="108" height="48" rx="24" fill="#F6F4FE" stroke="rgba(219,212,250,0.58)" stroke-width="1" />
      <rect x="21" y="5" width="76" height="4" rx="2" fill="#DBD4FA" stroke="none" stroke-width="1" />
      <g transform="translate(27 21)"><rect x="4" y="5" width="16" height="14" rx="2" stroke="#2D235F" stroke-width="1.8"/><path d="m7 16 4-4 3 3 2-2 1 3" stroke="#2D235F" stroke-width="1.8" stroke-linecap="round" stroke-linejoin="round"/></g><text x="51" y="36" fill="#2D235F" font-family="Inter, Arial, sans-serif" font-size="14" font-weight="400" letter-spacing="0" text-anchor="start">Image</text>
      <g transform="translate(140 21)"><rect x="4" y="7" width="12" height="10" rx="2" stroke="#6F6F7A" stroke-width="1.8"/><circle cx="10" cy="12" r="2" stroke="#6F6F7A" stroke-width="1.8"/><path d="m16 10 4-2v8l-4-2" stroke="#6F6F7A" stroke-width="1.8" stroke-linecap="round" stroke-linejoin="round"/></g><text x="164" y="36" fill="#6F6F7A" font-family="Inter, Arial, sans-serif" font-size="14" font-weight="400" letter-spacing="0" text-anchor="start">Video</text>
      <g transform="translate(254 21)"><path d="M9 18V5l11-2v13" stroke="#6F6F7A" stroke-width="1.8" stroke-linecap="round" stroke-linejoin="round"/><circle cx="6" cy="18" r="3" stroke="#6F6F7A" stroke-width="1.8"/><circle cx="17" cy="16" r="3" stroke="#6F6F7A" stroke-width="1.8"/></g><text x="278" y="36" fill="#6F6F7A" font-family="Inter, Arial, sans-serif" font-size="14" font-weight="400" letter-spacing="0" text-anchor="start">Audio</text>
    
</svg>
