<?xml version="1.0" encoding="UTF-8"?>
<svg width="342" height="363" viewBox="0 0 342 363" fill="none" xmlns="http://www.w3.org/2000/svg">
<title>FameFlow component</title>
<defs>
  <filter id="shadow" x="-20%" y="-20%" width="140%" height="160%" color-interpolation-filters="sRGB">
    <feDropShadow dx="0" dy="10" stdDeviation="14" flood-color="#1E1E24" flood-opacity="0.10"/>
  </filter>
  <linearGradient id="logoGrad" x1="0" y1="0" x2="48" y2="48" gradientUnits="userSpaceOnUse">
    <stop stop-color="#DBD4FA"/>
    <stop offset="1" stop-color="#8F7CF6"/>
  </linearGradient>
  <linearGradient id="greenGrad" x1="0" y1="0" x2="120" y2="96" gradientUnits="userSpaceOnUse">
    <stop stop-color="#C6FCE4"/>
    <stop offset="1" stop-color="#67D7AA"/>
  </linearGradient>
  <linearGradient id="purpleGrad" x1="0" y1="0" x2="140" y2="96" gradientUnits="userSpaceOnUse">
    <stop stop-color="#F5F1FF"/>
    <stop offset="1" stop-color="#DBD4FA"/>
  </linearGradient>
  
</defs>

      <rect x="0" y="0" width="342" height="363" rx="24" fill="#FFFFFF" stroke="#E8E6F2" stroke-width="1" filter="url(#shadow)"/>
      <g transform="translate(16 16)">
        <g>
          <path d="M21.4 11.6 12.3 20.7a5 5 0 0 1-7.1-7.1l9.2-9.2a3.2 3.2 0 1 1 4.5 4.5l-9.3 9.3a1.5 1.5 0 0 1-2.1-2.1l8.6-8.6" stroke="#6F6F7A" stroke-width="1.8" stroke-linecap="round" stroke-linejoin="round"/>
        </g>
        <text x="40" y="31" fill="#6F6F7A" font-family="Inter, Arial, sans-serif" font-size="17" font-weight="500" letter-spacing="0" text-anchor="start">Enter a text prompt or</text>
        <text x="40" y="57" fill="#6F6F7A" font-family="Inter, Arial, sans-serif" font-size="17" font-weight="500" letter-spacing="0" text-anchor="start">reference image</text>
        <g transform="translate(276 0)">
          <path d="M16 4a3 3 0 0 0-3 3v6a3 3 0 0 0 6 0V7a3 3 0 0 0-3-3Z" stroke="#6F6F7A" stroke-width="1.8"/>
          <path d="M23 12a7 7 0 0 1-14 0M16 19v3" stroke="#6F6F7A" stroke-width="1.8" stroke-linecap="round"/>
        </g>
      </g>
      <rect x="16" y="234" width="174" height="48" rx="16" fill="#F6F4FE" stroke="rgba(219,212,250,0.78)" stroke-width="1" filter="url(#shadow)"/>
      <g transform="translate(28 246)"><path d="M12 3 14 9l6 2-6 2-2 6-2-6-6-2 6-2 2-6Z" stroke="#1E1E24" stroke-width="1.8" stroke-linejoin="round"/></g>
      <text x="66" y="264" fill="#1E1E24" font-family="Inter, Arial, sans-serif" font-size="14" font-weight="600" letter-spacing="0" text-anchor="start">Enhance prompt</text>
      <rect x="16" y="298" width="150" height="48" rx="16" fill="#FFFFFF" stroke="rgba(219,212,250,0.78)" stroke-width="1" filter="url(#shadow)"/>
      <text x="32" y="326" fill="#6F6F7A" font-family="Inter, Arial, sans-serif" font-size="14" font-weight="400" letter-spacing="0" text-anchor="start">Model</text>
      <text x="104" y="326" fill="#1E1E24" font-family="Inter, Arial, sans-serif" font-size="14" font-weight="700" letter-spacing="0" text-anchor="start">Fast</text>
      <g transform="translate(134 310) rotate(90 12 12)"><path d="m8 5 6 7-6 7" stroke="#1E1E24" stroke-width="2" stroke-linecap="round" stroke-linejoin="round"/></g>
      <rect x="174" y="298" width="150" height="48" rx="16" fill="#FFFFFF" stroke="rgba(219,212,250,0.78)" stroke-width="1" filter="url(#shadow)"/>
      <text x="190" y="326" fill="#6F6F7A" font-family="Inter, Arial, sans-serif" font-size="14" font-weight="400" letter-spacing="0" text-anchor="start">Size</text>
      <text x="260" y="326" fill="#1E1E24" font-family="Inter, Arial, sans-serif" font-size="14" font-weight="700" letter-spacing="0" text-anchor="start">9:16</text>
      <g transform="translate(292 310) rotate(90 12 12)"><path d="m8 5 6 7-6 7" stroke="#1E1E24" stroke-width="2" stroke-linecap="round" stroke-linejoin="round"/></g>
    
</svg>
