<?xml version="1.0" encoding="UTF-8"?>
<svg width="342" height="164" viewBox="0 0 342 164" fill="none" xmlns="http://www.w3.org/2000/svg">
<title>FameFlow component</title>
<defs>
  <filter id="shadow" x="-20%" y="-20%" width="140%" height="160%" color-interpolation-filters="sRGB">
    <feDropShadow dx="0" dy="10" stdDeviation="14" flood-color="#1E1E24" flood-opacity="0.10"/>
  </filter>
  <linearGradient id="logoGrad" x1="0" y1="0" x2="48" y2="48" gradientUnits="userSpaceOnUse">
    <stop stop-color="#DBD4FA"/>
    <stop offset="1" stop-color="#8F7CF6"/>
  </linearGradient>
  <linearGradient id="greenGrad" x1="0" y1="0" x2="120" y2="96" gradientUnits="userSpaceOnUse">
    <stop stop-color="#C6FCE4"/>
    <stop offset="1" stop-color="#67D7AA"/>
  </linearGradient>
  <linearGradient id="purpleGrad" x1="0" y1="0" x2="140" y2="96" gradientUnits="userSpaceOnUse">
    <stop stop-color="#F5F1FF"/>
    <stop offset="1" stop-color="#DBD4FA"/>
  </linearGradient>
  
</defs>

      <rect x="0" y="0" width="342" height="116" rx="24" fill="#FFFFFF" stroke="#E8E6F2" stroke-width="1" />
      <rect x="16" y="20" width="40" height="40" rx="20" fill="#FFFFFF" stroke="#E8E6F2" stroke-width="1" /><g transform="translate(24 28)"><path d="M12 5L12 19" stroke="#1E1E24" stroke-width="2" stroke-linecap="round"/><path d="M5 12L19 12" stroke="#1E1E24" stroke-width="2" stroke-linecap="round"/></g>
      <text x="72" y="42" fill="#A8A8B3" font-family="Inter, Arial, sans-serif" font-size="16" font-weight="500" letter-spacing="0" text-anchor="start">Enter a text prompt</text>
      <text x="72" y="68" fill="#A8A8B3" font-family="Inter, Arial, sans-serif" font-size="16" font-weight="500" letter-spacing="0" text-anchor="start">or reference image</text>
      <rect x="286" y="60" width="40" height="40" rx="20" fill="#FFFFFF" stroke="#E8E6F2" stroke-width="1" /><g transform="translate(294 68)"><path d="M12 4v7a4 4 0 0 1-8 0V4a4 4 0 0 1 8 0Z" stroke="#1E1E24" stroke-width="1.8"/><path d="M2 11a8 8 0 0 0 16 0M10 19v3M6 22h8" stroke="#1E1E24" stroke-width="1.8" stroke-linecap="round"/></g>
      <rect x="0" y="128" width="174" height="36" rx="18" fill="#F7F4FF" stroke="#E8E6F2" stroke-width="1" />
      <g transform="translate(14 134)"><path d="M12 3 14.4 9.1 21 9.4l-5.1 4.1 1.7 6.5-5.6-3.6L6.4 20l1.7-6.5L3 9.4l6.6-.3L12 3Z" stroke="#8F7CF6" stroke-width="1.8" stroke-linejoin="round"/></g>
      <text x="44" y="151" fill="#8F7CF6" font-family="Inter, Arial, sans-serif" font-size="13" font-weight="700" letter-spacing="0" text-anchor="start">Enhance prompt</text>
    
</svg>
