<?xml version="1.0" encoding="UTF-8"?>
<svg width="342" height="120" viewBox="0 0 342 120" fill="none" xmlns="http://www.w3.org/2000/svg">
<title>FameFlow component</title>
<defs>
  <filter id="shadow" x="-20%" y="-20%" width="140%" height="160%" color-interpolation-filters="sRGB">
    <feDropShadow dx="0" dy="10" stdDeviation="14" flood-color="#1E1E24" flood-opacity="0.10"/>
  </filter>
  <linearGradient id="logoGrad" x1="0" y1="0" x2="48" y2="48" gradientUnits="userSpaceOnUse">
    <stop stop-color="#DBD4FA"/>
    <stop offset="1" stop-color="#8F7CF6"/>
  </linearGradient>
  <linearGradient id="greenGrad" x1="0" y1="0" x2="120" y2="96" gradientUnits="userSpaceOnUse">
    <stop stop-color="#C6FCE4"/>
    <stop offset="1" stop-color="#67D7AA"/>
  </linearGradient>
  <linearGradient id="purpleGrad" x1="0" y1="0" x2="140" y2="96" gradientUnits="userSpaceOnUse">
    <stop stop-color="#F5F1FF"/>
    <stop offset="1" stop-color="#DBD4FA"/>
  </linearGradient>
  
</defs>

      <rect x="0" y="0" width="342" height="48" rx="24" fill="#FFFFFF" stroke="#E8E6F2" stroke-width="1" filter="url(#shadow)"/>
      <rect x="4" y="4" width="80.5" height="40" rx="20" fill="#DBD4FA" stroke="none" stroke-width="1" />
      <text x="44.25" y="29" fill="#2D235F" font-family="Inter, Arial, sans-serif" font-size="14" font-weight="400" letter-spacing="0" text-anchor="middle">All</text>
      <text x="128.75" y="29" fill="#1E1E24" font-family="Inter, Arial, sans-serif" font-size="14" font-weight="400" letter-spacing="0" text-anchor="middle">Celebrity</text>
      <text x="213.25" y="29" fill="#1E1E24" font-family="Inter, Arial, sans-serif" font-size="14" font-weight="400" letter-spacing="0" text-anchor="middle">Character</text>
      <text x="297.75" y="29" fill="#1E1E24" font-family="Inter, Arial, sans-serif" font-size="14" font-weight="400" letter-spacing="0" text-anchor="middle">Favorites</text>
      <rect x="0" y="64" width="167" height="56" rx="28" fill="#F6F4FE" stroke="rgba(219,212,250,0.76)" stroke-width="1" filter="url(#shadow)"/>
      <g transform="translate(16 80)"><circle cx="12" cy="8" r="4" stroke="#1E1E24" stroke-width="1.8"/><path d="M5 21c1.4-4 4-6 7-6s5.6 2 7 6" stroke="#1E1E24" stroke-width="1.8" stroke-linecap="round"/></g><text x="49" y="99" fill="#1E1E24" font-family="Inter, Arial, sans-serif" font-size="14" font-weight="400" letter-spacing="0" text-anchor="start">All subje...</text>
      <g transform="translate(127 80) rotate(90 12 12)"><path d="m8 5 6 7-6 7" stroke="#1E1E24" stroke-width="2" stroke-linecap="round" stroke-linejoin="round"/></g>
      <rect x="175" y="64" width="167" height="56" rx="28" fill="#F6F4FE" stroke="rgba(219,212,250,0.76)" stroke-width="1" filter="url(#shadow)"/>
      <g transform="translate(191 80)"><rect x="4" y="4" width="6" height="6" rx="1" stroke="#1E1E24" stroke-width="1.8"/><rect x="14" y="4" width="6" height="6" rx="1" stroke="#1E1E24" stroke-width="1.8"/><rect x="4" y="14" width="6" height="6" rx="1" stroke="#1E1E24" stroke-width="1.8"/><rect x="14" y="14" width="6" height="6" rx="1" stroke="#1E1E24" stroke-width="1.8"/></g><text x="224" y="99" fill="#1E1E24" font-family="Inter, Arial, sans-serif" font-size="14" font-weight="400" letter-spacing="0" text-anchor="start">All media</text>
      <g transform="translate(302 80) rotate(90 12 12)"><path d="m8 5 6 7-6 7" stroke="#1E1E24" stroke-width="2" stroke-linecap="round" stroke-linejoin="round"/></g>
    
</svg>
