<?xml version="1.0" encoding="UTF-8"?>
<svg width="342" height="104" viewBox="0 0 342 104" fill="none" xmlns="http://www.w3.org/2000/svg">
<title>FameFlow component</title>
<defs>
  <filter id="shadow" x="-20%" y="-20%" width="140%" height="160%" color-interpolation-filters="sRGB">
    <feDropShadow dx="0" dy="10" stdDeviation="14" flood-color="#1E1E24" flood-opacity="0.10"/>
  </filter>
  <linearGradient id="logoGrad" x1="0" y1="0" x2="48" y2="48" gradientUnits="userSpaceOnUse">
    <stop stop-color="#DBD4FA"/>
    <stop offset="1" stop-color="#8F7CF6"/>
  </linearGradient>
  <linearGradient id="greenGrad" x1="0" y1="0" x2="120" y2="96" gradientUnits="userSpaceOnUse">
    <stop stop-color="#C6FCE4"/>
    <stop offset="1" stop-color="#67D7AA"/>
  </linearGradient>
  <linearGradient id="purpleGrad" x1="0" y1="0" x2="140" y2="96" gradientUnits="userSpaceOnUse">
    <stop stop-color="#F5F1FF"/>
    <stop offset="1" stop-color="#DBD4FA"/>
  </linearGradient>
  
</defs>

      <rect x="0" y="0" width="58" height="36" rx="18" fill="#8F7CF6" stroke="#8F7CF6" stroke-width="1" /><text x="29" y="23" fill="#fff" font-family="Inter, Arial, sans-serif" font-size="13" font-weight="600" letter-spacing="0" text-anchor="middle">All</text>
      <rect x="66" y="0" width="96" height="36" rx="18" fill="#FFFFFF" stroke="#E8E6F2" stroke-width="1" /><text x="114" y="23" fill="#1E1E24" font-family="Inter, Arial, sans-serif" font-size="13" font-weight="600" letter-spacing="0" text-anchor="middle">Celebrity</text>
      <rect x="170" y="0" width="100" height="36" rx="18" fill="#FFFFFF" stroke="#E8E6F2" stroke-width="1" /><text x="220" y="23" fill="#1E1E24" font-family="Inter, Arial, sans-serif" font-size="13" font-weight="600" letter-spacing="0" text-anchor="middle">Character</text>
      <rect x="278" y="0" width="64" height="36" rx="18" fill="#FFFFFF" stroke="#E8E6F2" stroke-width="1" /><text x="310" y="23" fill="#1E1E24" font-family="Inter, Arial, sans-serif" font-size="13" font-weight="600" letter-spacing="0" text-anchor="middle">Favs</text>
      <rect x="0" y="56" width="162" height="48" rx="16" fill="#FFFFFF" stroke="#E8E6F2" stroke-width="1" />
      <g transform="translate(16 68)"><circle cx="12" cy="8" r="4" stroke="#6F6F7A" stroke-width="1.8"/><path d="M5 21c1.4-4 4-6 7-6s5.6 2 7 6" stroke="#6F6F7A" stroke-width="1.8" stroke-linecap="round"/></g><text x="50" y="86" fill="#1E1E24" font-family="Inter, Arial, sans-serif" font-size="14" font-weight="700" letter-spacing="0" text-anchor="start">Subject</text>
      <g transform="translate(130 68) rotate(90 12 12)"><path d="m8 5 6 7-6 7" stroke="#6F6F7A" stroke-width="2" stroke-linecap="round" stroke-linejoin="round"/></g>
      <rect x="180" y="56" width="162" height="48" rx="16" fill="#FFFFFF" stroke="#E8E6F2" stroke-width="1" />
      <g transform="translate(196 68)"><rect x="4" y="5" width="16" height="14" rx="2" stroke="#6F6F7A" stroke-width="1.8"/><path d="m7 16 4-4 3 3 2-2 1 3" stroke="#6F6F7A" stroke-width="1.8" stroke-linecap="round" stroke-linejoin="round"/></g><text x="230" y="86" fill="#1E1E24" font-family="Inter, Arial, sans-serif" font-size="14" font-weight="700" letter-spacing="0" text-anchor="start">Media</text>
      <g transform="translate(310 68) rotate(90 12 12)"><path d="m8 5 6 7-6 7" stroke="#6F6F7A" stroke-width="2" stroke-linecap="round" stroke-linejoin="round"/></g>
    
</svg>
