<?xml version="1.0" encoding="UTF-8"?>
<svg width="162" height="236" viewBox="0 0 162 236" fill="none" xmlns="http://www.w3.org/2000/svg">
<title>FameFlow component</title>
<defs>
  <filter id="shadow" x="-20%" y="-20%" width="140%" height="160%" color-interpolation-filters="sRGB">
    <feDropShadow dx="0" dy="10" stdDeviation="14" flood-color="#1E1E24" flood-opacity="0.10"/>
  </filter>
  <linearGradient id="logoGrad" x1="0" y1="0" x2="48" y2="48" gradientUnits="userSpaceOnUse">
    <stop stop-color="#DBD4FA"/>
    <stop offset="1" stop-color="#8F7CF6"/>
  </linearGradient>
  <linearGradient id="greenGrad" x1="0" y1="0" x2="120" y2="96" gradientUnits="userSpaceOnUse">
    <stop stop-color="#C6FCE4"/>
    <stop offset="1" stop-color="#67D7AA"/>
  </linearGradient>
  <linearGradient id="purpleGrad" x1="0" y1="0" x2="140" y2="96" gradientUnits="userSpaceOnUse">
    <stop stop-color="#F5F1FF"/>
    <stop offset="1" stop-color="#DBD4FA"/>
  </linearGradient>
  
</defs>

      <rect x="0" y="0" width="162" height="236" rx="20" fill="#FFFFFF" stroke="#E8E6F2" stroke-width="1" />
      <rect x="10" y="10" width="142" height="142" rx="16" fill="url(#purpleGrad)" stroke="none" stroke-width="1" />
      <circle cx="81" cy="78" r="34" fill="#FFFFFF" fill-opacity="0.42"/>
      <path d="M66 94c8-19 22-19 30 0" stroke="#8F7CF6" stroke-width="5" stroke-linecap="round"/>
      <circle cx="81" cy="67" r="19" fill="#8F7CF6" fill-opacity="0.75"/>
      <rect x="18" y="18" width="34" height="28" rx="14" fill="#FFFFFF" stroke="none" stroke-width="1" fill-opacity="0.88"/>
      <g transform="translate(23 20)"><rect x="4" y="5" width="16" height="14" rx="2" stroke="#8F7CF6" stroke-width="1.8"/><path d="m7 16 4-4 3 3 2-2 1 3" stroke="#8F7CF6" stroke-width="1.8" stroke-linecap="round" stroke-linejoin="round"/></g>
      <rect x="110" y="18" width="32" height="28" rx="14" fill="#FFFFFF" stroke="none" stroke-width="1" fill-opacity="0.88"/>
      <path d="M126 24l2.3 5.2 5.7.4-4.4 3.6 1.3 5.6-4.9-3-4.9 3 1.3-5.6-4.4-3.6 5.7-.4L126 24Z" fill="#8F7CF6"/>
      <text x="14" y="178" fill="#8F7CF6" font-family="Inter, Arial, sans-serif" font-size="12" font-weight="700" letter-spacing="0" text-anchor="start">Character</text>
      <text x="14" y="204" fill="#1E1E24" font-family="Inter, Arial, sans-serif" font-size="15" font-weight="700" letter-spacing="0" text-anchor="start">Mina portrait</text>
      <circle cx="136" cy="196" r="3" fill="#6F6F7A"/><circle cx="136" cy="204" r="3" fill="#6F6F7A"/><circle cx="136" cy="212" r="3" fill="#6F6F7A"/>
    
</svg>
