<?xml version="1.0" encoding="UTF-8"?>
<svg width="390" height="81" viewBox="0 0 390 81" fill="none" xmlns="http://www.w3.org/2000/svg">
<title>FameFlow component</title>
<defs>
  <filter id="shadow" x="-20%" y="-20%" width="140%" height="160%" color-interpolation-filters="sRGB">
    <feDropShadow dx="0" dy="10" stdDeviation="14" flood-color="#1E1E24" flood-opacity="0.10"/>
  </filter>
  <linearGradient id="logoGrad" x1="0" y1="0" x2="48" y2="48" gradientUnits="userSpaceOnUse">
    <stop stop-color="#DBD4FA"/>
    <stop offset="1" stop-color="#8F7CF6"/>
  </linearGradient>
  <linearGradient id="greenGrad" x1="0" y1="0" x2="120" y2="96" gradientUnits="userSpaceOnUse">
    <stop stop-color="#C6FCE4"/>
    <stop offset="1" stop-color="#67D7AA"/>
  </linearGradient>
  <linearGradient id="purpleGrad" x1="0" y1="0" x2="140" y2="96" gradientUnits="userSpaceOnUse">
    <stop stop-color="#F5F1FF"/>
    <stop offset="1" stop-color="#DBD4FA"/>
  </linearGradient>
  
</defs>

      <rect x="0" y="0" width="390" height="81" rx="0" fill="rgba(250,250,252,0.94)" stroke="none" stroke-width="1" />
      <path d="M0 0.5H390" stroke="#E8E6F2" stroke-width="1"/>
      <rect x="24" y="9" width="111.33" height="64" rx="16" fill="rgba(219,212,250,0.28)" stroke="none" stroke-width="1" />
      <rect x="40" y="9" width="79.33" height="4" rx="2" fill="#DBD4FA" stroke="none" stroke-width="1" />
      <g transform="translate(67.67 17)">
        <rect x="6" y="8" width="12" height="9" rx="4" stroke="#2D235F" stroke-width="1.8"/>
        <path d="M12 8V5M9 5h6M4 12h2M18 12h2" stroke="#2D235F" stroke-width="1.8" stroke-linecap="round"/>
        <circle cx="10" cy="12.5" r=".8" fill="#2D235F"/><circle cx="14" cy="12.5" r=".8" fill="#2D235F"/>
      </g>
      <text x="79.67" y="61" fill="#2D235F" font-family="Inter, Arial, sans-serif" font-size="14" font-weight="400" letter-spacing="0" text-anchor="middle">Co-Pilot</text>
      <g transform="translate(183 17)"><path d="M12 3 14.4 9.1 21 9.4l-5.1 4.1 1.7 6.5-5.6-3.6L6.4 20l1.7-6.5L3 9.4l6.6-.3L12 3Z" stroke="#6F6F7A" stroke-width="1.8" stroke-linejoin="round"/></g>
      <text x="195" y="61" fill="#6F6F7A" font-family="Inter, Arial, sans-serif" font-size="14" font-weight="400" letter-spacing="0" text-anchor="middle">Generate</text>
      <g transform="translate(298.33 17)"><rect x="4" y="4" width="6" height="6" rx="1" stroke="#6F6F7A" stroke-width="1.8"/><rect x="14" y="4" width="6" height="6" rx="1" stroke="#6F6F7A" stroke-width="1.8"/><rect x="4" y="14" width="6" height="6" rx="1" stroke="#6F6F7A" stroke-width="1.8"/><rect x="14" y="14" width="6" height="6" rx="1" stroke="#6F6F7A" stroke-width="1.8"/></g>
      <text x="310.33" y="61" fill="#6F6F7A" font-family="Inter, Arial, sans-serif" font-size="14" font-weight="400" letter-spacing="0" text-anchor="middle">Gallery</text>
    
</svg>
