<?xml version="1.0" encoding="UTF-8"?>
<svg width="390" height="88" viewBox="0 0 390 88" fill="none" xmlns="http://www.w3.org/2000/svg">
<title>FameFlow component</title>
<defs>
  <filter id="shadow" x="-20%" y="-20%" width="140%" height="160%" color-interpolation-filters="sRGB">
    <feDropShadow dx="0" dy="10" stdDeviation="14" flood-color="#1E1E24" flood-opacity="0.10"/>
  </filter>
  <linearGradient id="logoGrad" x1="0" y1="0" x2="48" y2="48" gradientUnits="userSpaceOnUse">
    <stop stop-color="#DBD4FA"/>
    <stop offset="1" stop-color="#8F7CF6"/>
  </linearGradient>
  <linearGradient id="greenGrad" x1="0" y1="0" x2="120" y2="96" gradientUnits="userSpaceOnUse">
    <stop stop-color="#C6FCE4"/>
    <stop offset="1" stop-color="#67D7AA"/>
  </linearGradient>
  <linearGradient id="purpleGrad" x1="0" y1="0" x2="140" y2="96" gradientUnits="userSpaceOnUse">
    <stop stop-color="#F5F1FF"/>
    <stop offset="1" stop-color="#DBD4FA"/>
  </linearGradient>
  
</defs>

      <rect x="0" y="0" width="390" height="88" rx="0" fill="rgba(250,250,252,0.96)" stroke="none" stroke-width="1" />
      <rect x="22" y="12" width="82" height="56" rx="18" fill="#DBD4FA" stroke="none" stroke-width="1" />
      <g transform="translate(51 19)"><path d="M12 3 14.4 9.1 21 9.4l-5.1 4.1 1.7 6.5-5.6-3.6L6.4 20l1.7-6.5L3 9.4l6.6-.3L12 3Z" stroke="#2D235F" stroke-width="1.8" stroke-linejoin="round"/></g><text x="63" y="58" fill="#2D235F" font-family="Inter, Arial, sans-serif" font-size="11" font-weight="700" letter-spacing="0" text-anchor="middle">Create</text>
      <g transform="translate(137 19)"><rect x="4" y="5" width="16" height="14" rx="2" stroke="#6F6F7A" stroke-width="1.8"/><path d="m7 16 4-4 3 3 2-2 1 3" stroke="#6F6F7A" stroke-width="1.8" stroke-linecap="round" stroke-linejoin="round"/></g><text x="149" y="58" fill="#6F6F7A" font-family="Inter, Arial, sans-serif" font-size="11" font-weight="600" letter-spacing="0" text-anchor="middle">Gallery</text>
      <g transform="translate(226 19)"><circle cx="12" cy="8" r="4" stroke="#6F6F7A" stroke-width="1.8"/><path d="M5 21c1.4-4 4-6 7-6s5.6 2 7 6" stroke="#6F6F7A" stroke-width="1.8" stroke-linecap="round"/></g><text x="238" y="58" fill="#6F6F7A" font-family="Inter, Arial, sans-serif" font-size="11" font-weight="600" letter-spacing="0" text-anchor="middle">Co-Pilot</text>
      <g transform="translate(316 19)"><path d="M5 7L19 7" stroke="#6F6F7A" stroke-width="2.4" stroke-linecap="round"/><path d="M5 12L19 12" stroke="#6F6F7A" stroke-width="2.4" stroke-linecap="round"/><path d="M5 17L19 17" stroke="#6F6F7A" stroke-width="2.4" stroke-linecap="round"/></g><text x="328" y="58" fill="#6F6F7A" font-family="Inter, Arial, sans-serif" font-size="11" font-weight="600" letter-spacing="0" text-anchor="middle">Menu</text>
    
</svg>
