<?xml version="1.0" encoding="UTF-8"?>
<svg width="342" height="238" viewBox="0 0 342 238" fill="none" xmlns="http://www.w3.org/2000/svg">
<title>FameFlow component</title>
<defs>
  <filter id="shadow" x="-20%" y="-20%" width="140%" height="160%" color-interpolation-filters="sRGB">
    <feDropShadow dx="0" dy="10" stdDeviation="14" flood-color="#1E1E24" flood-opacity="0.10"/>
  </filter>
  <linearGradient id="logoGrad" x1="0" y1="0" x2="48" y2="48" gradientUnits="userSpaceOnUse">
    <stop stop-color="#DBD4FA"/>
    <stop offset="1" stop-color="#8F7CF6"/>
  </linearGradient>
  <linearGradient id="greenGrad" x1="0" y1="0" x2="120" y2="96" gradientUnits="userSpaceOnUse">
    <stop stop-color="#C6FCE4"/>
    <stop offset="1" stop-color="#67D7AA"/>
  </linearGradient>
  <linearGradient id="purpleGrad" x1="0" y1="0" x2="140" y2="96" gradientUnits="userSpaceOnUse">
    <stop stop-color="#F5F1FF"/>
    <stop offset="1" stop-color="#DBD4FA"/>
  </linearGradient>
  
</defs>

      <rect x="0" y="0" width="342" height="238" rx="24" fill="#FFFFFF" stroke="#E8E6F2" stroke-width="1" />
      <text x="24" y="44" fill="#1E1E24" font-family="Inter, Arial, sans-serif" font-size="22" font-weight="700" letter-spacing="0" text-anchor="start">Add reference</text>
      <rect x="24" y="70" width="294" height="48" rx="16" fill="#FFFFFF" stroke="#E8E6F2" stroke-width="1" /><g transform="translate(42 82)"><rect x="4" y="5" width="16" height="14" rx="2" stroke="#8F7CF6" stroke-width="1.8"/><path d="m7 16 4-4 3 3 2-2 1 3" stroke="#8F7CF6" stroke-width="1.8" stroke-linecap="round" stroke-linejoin="round"/></g><text x="80" y="101" fill="#1E1E24" font-family="Inter, Arial, sans-serif" font-size="15" font-weight="700" letter-spacing="0" text-anchor="start">Media library</text>
      <rect x="24" y="126" width="294" height="48" rx="16" fill="#FFFFFF" stroke="#E8E6F2" stroke-width="1" /><g transform="translate(42 138)"><rect x="4" y="7" width="12" height="10" rx="2" stroke="#8F7CF6" stroke-width="1.8"/><circle cx="10" cy="12" r="2" stroke="#8F7CF6" stroke-width="1.8"/><path d="m16 10 4-2v8l-4-2" stroke="#8F7CF6" stroke-width="1.8" stroke-linecap="round" stroke-linejoin="round"/></g><text x="80" y="157" fill="#1E1E24" font-family="Inter, Arial, sans-serif" font-size="15" font-weight="700" letter-spacing="0" text-anchor="start">Take photo/video</text>
      <rect x="24" y="182" width="294" height="48" rx="16" fill="#FFFFFF" stroke="#E8E6F2" stroke-width="1" /><g transform="translate(42 194)"><path d="M12 5L12 19" stroke="#8F7CF6" stroke-width="2" stroke-linecap="round"/><path d="M5 12L19 12" stroke="#8F7CF6" stroke-width="2" stroke-linecap="round"/></g><text x="80" y="213" fill="#1E1E24" font-family="Inter, Arial, sans-serif" font-size="15" font-weight="700" letter-spacing="0" text-anchor="start">Choose file</text>
    
</svg>
